<svg width="429" height="37.4552224952868" viewBox="0 0 369.54838709677415 32.26460853492785" xmlns="http://www.w3.org/2000/svg" class="looka-1j8o68f"><defs id="SvgjsDefs5961"></defs><g id="SvgjsG5962" featurekey="monogramFeature-0" transform="matrix(2.0896766463031167,0,0,2.0896766463031167,0.04183584157627082,-9.528925387569956)" fill="#111111"><path d="M6.42 8.62 l1.78 -4.06 l7.66 15.44 l-3.76 0 z M3.12 16.04 c-0.26666 0.49334 -0.56668 0.9733 -0.90002 1.44 c-0.28 0.4 -0.61 0.83 -0.99 1.29 s-0.79666 0.87 -1.25 1.23 l3.34 0 l3.32 0 c-0.53334 -0.30666 -1.0133 -0.68332 -1.44 -1.13 s-0.79332 -0.88332 -1.1 -1.31 c-0.36 -0.49334 -0.68666 -1 -0.98 -1.52 z M21.494500000000002 12.2 c0.33334 0.17334 0.66668 0.38666 1 0.64 c0.28 0.22666 0.57666 0.51 0.89 0.85 s0.59 0.75 0.83 1.23 l0 -2.72 l0 -3 c-0.25334 0.53334 -0.53668 0.99 -0.85002 1.37 s-0.61 0.69 -0.89 0.93 c-0.33334 0.28 -0.66 0.51334 -0.98 0.7 z M22.7345 5 l4.26 -0.000019531 l0 5.4 c-0.32 -0.74666 -0.69334 -1.46 -1.12 -2.14 c-0.37334 -0.58666 -0.82 -1.1833 -1.34 -1.79 s-1.12 -1.0967 -1.8 -1.47 z M16.0745 5.02 l0 14.98 l3.52 0 l0 -14.98 l-3.52 0 z"></path></g><g id="SvgjsG5963" featurekey="fHLFJf-0" transform="matrix(1.5319138525839053,0,0,1.5319138525839053,76.12255299133096,-2.996589989079669)" fill="#111111"><path d="M13.42 16.740000000000002 c1.02 2.56 1.48 2.98 2.06 3.16 l0 0.1 l-6.58 0 l0 -0.1 c0.88 -0.28 1.28 -1.2 0.58 -3.08 l-0.7 -1.82 l-4.04 -0.12 l0.08 -0.14 l3.82 -0.12 l-2.62 -6.88 l0.98 -2.32 l1.96 0 z M2.88 16.46 c-0.74 1.98 0.24 3.22 1.52 3.44 l0 0.1 l-4.48 0 l0 -0.1 c0.72 -0.22 1.68 -1.5 2.38 -3.2 l3.16 -7.6 l0.06 0.28 z M21.8685 5.42 l-5.12 0 l0 0.1 c0.88 0.46 1.48 1.12 3.56 3.82 l8.12 10.66 l1.08 0 l0 -4.64 z M29.1285 9.1 l0.14 4.02 l0.16 0.22 l0.06 -4.24 c0.04 -2.28 0.78 -3.18 1.8 -3.58 l0 -0.1 l-4.16 0 l0 0.1 c1.2 0.4 1.92 1.3 2 3.58 z M19.0685 16.32 l-0.14 -6.72 l-0.2 -0.24 l-0.08 6.96 c-0.04 2.3 -0.8 3.18 -1.82 3.58 l0 0.1 l4.12 0 l0 -0.1 c-1.16 -0.4 -1.84 -1.32 -1.88 -3.58 z M33.876999999999995 5.52 l0 -0.1 l4.66 0 l0 14.58 l-4.66 0 l0 -0.1 c0.6 -0.2 0.96 -1.08 0.96 -2.92 l0 -8.54 c0 -1.84 -0.36 -2.72 -0.96 -2.92 z M39.67699999999999 5.42 c5.7 0.08 8.86 2.7 8.86 7.3 c0 4.54 -3.08 7.14 -8.86 7.28 l0 -0.16 c2.86 -0.12 4.98 -1.92 4.98 -7.12 c0 -5.34 -2.24 -7.1 -4.98 -7.14 l0 -0.16 z M55.6855 16.44 c0 2.38 0.38 3.26 1.2 3.46 l0 0.1 l-5.86 0 l0 -0.1 c0.6 -0.2 0.96 -1.08 0.96 -2.92 l0 -8.54 c0 -1.84 -0.36 -2.72 -0.96 -2.92 l0 -0.1 l4.66 0 l0 11.02 z M63.2255 18.02 c0.6 1.32 1.02 1.74 1.4 1.88 l0 0.1 l-4.84 0 l-2.14 -6.72 c-0.22 0.02 -0.46 0.02 -0.7 0.02 l-0.04 -0.12 c1.24 -0.18 2.38 -1.14 2.38 -3.72 c0 -2.56 -1.06 -3.68 -2.46 -3.88 l0 -0.16 c4.16 0 6.36 1.6 6.36 4.06 c0 2.2 -2.02 3.56 -5.16 3.78 l0 0.1 c1.1 0.44 2.28 0.76 3.56 1.08 z M66.514 5.52 l0 -0.1 l4.66 0 l0 14.58 l-4.66 0 l0 -0.1 c0.6 -0.2 0.96 -1.08 0.96 -2.92 l0 -8.54 c0 -1.84 -0.36 -2.72 -0.96 -2.92 z M77.314 9.6 c-1 -2.34 -2.34 -3.68 -4.32 -3.92 l-0.68 -0.08 l0 -0.18 l4.92 0 l0.18 4.14 z M73.094 12.32 c1.6 -0.04 2.46 -0.76 2.88 -1.86 l0.08 0 l0 4.22 l-0.08 0 c-0.42 -1.24 -1.28 -2.12 -2.88 -2.16 l-0.68 -0.02 l0 -0.16 z M78.194 15.8 l0.1 0.04 l-0.44 4.16 l-5.54 0 l0 -0.18 l1.16 -0.1 c1.66 -0.14 3.6 -1.94 4.72 -3.92 z M86.1425 5.52 c-0.88 0.28 -1.26 1.2 -0.58 3.08 l3.28 9.06 l-0.9 2.34 l-1.96 0 l-4.38 -11.32 c-0.98 -2.56 -1.48 -2.98 -2.06 -3.16 l0 -0.1 l6.6 0 l0 0.1 z M95.0825 5.52 c-0.86 0.28 -1.24 1.2 -0.56 3.08 l3.3 9.06 l-0.94 2.34 l-1.92 0 l-3.5 -9.02 l-1.96 4.98 l-0.08 -0.3 l1.84 -5.18 l-0.7 -1.8 c-1 -2.56 -1.48 -2.98 -2.06 -3.16 l0 -0.1 l6.58 0 l0 0.1 z M99.0625 5.42 l4.44 0 l0 0.1 c-0.7 0.22 -1.74 1.48 -2.38 3.2 l-2.7 7.22 l-0.08 -0.28 l2.22 -6.68 c0.64 -1.96 -0.28 -3.24 -1.5 -3.46 l0 -0.1 z M114.41949999999999 16.44 c0 2.38 0.4 3.26 1.28 3.46 l0 0.1 l-5.94 0 l0 -0.1 c0.6 -0.2 0.96 -1.08 0.96 -2.92 l0 -8.54 c0 -1.84 -0.36 -2.72 -0.96 -2.92 l0 -0.1 l4.66 0 l0 11.02 z M120.47949999999999 5.42 l0.18 4.14 l-0.1 0.04 c-1 -2.32 -2.32 -3.68 -4.32 -3.92 l-0.68 -0.08 l0 -0.18 l4.92 0 z M116.33949999999999 12.4 c1.6 -0.1 2.46 -0.74 2.88 -1.84 l0.08 0 l0 4.24 l-0.08 0 c-0.42 -1.24 -1.28 -2.08 -2.88 -2.16 l-0.68 -0.04 l0 -0.16 z M127.50799999999998 16.98 c0 1.84 0.36 2.72 1 2.92 l0 0.1 l-5.66 0 l0 -0.1 c0.6 -0.2 0.96 -1.08 0.96 -2.92 l0 -8.54 c0 -1.84 -0.36 -2.72 -0.96 -2.92 l0 -0.1 l5.62 0 l0 0.1 c-0.64 0.2 -0.96 1.08 -0.96 2.92 l0 8.54 z M131.8965 9.5 c0 -2.3 1.88 -4.06 4.68 -4.28 l0 0.16 c-1.06 0.24 -1.64 1.16 -1.64 2.24 c0 3.9 7.66 3.24 7.66 8.44 c0 2.42 -2.08 3.96 -5.52 4.12 l0 -0.14 c1.34 -0.2 2.12 -1.1 2.12 -2.32 c0 -3.84 -7.3 -3.26 -7.3 -8.22 z M137.7165 5.380000000000001 l0 -0.16 c1.7 0.12 3.1 0.62 4.04 1.18 l-0.72 3.74 l-0.08 0.02 c-0.66 -2.56 -1.8 -4.42 -3.24 -4.78 z M131.3765 19.04 l0.76 -4.14 l0.08 -0.02 c1.02 3.52 2.26 4.9 3.72 5.16 l0 0.14 c-1.58 -0.08 -3.54 -0.56 -4.56 -1.14 z M145.185 5.52 l0 -0.1 l5.66 0 l0 0.1 c-0.64 0.2 -1 1.08 -1 2.92 l0 8.54 c0 1.84 0.36 2.72 1 2.92 l0 0.1 l-5.66 0 l0 -0.1 c0.6 -0.2 0.96 -1.08 0.96 -2.92 l0 -8.54 c0 -1.84 -0.36 -2.72 -0.96 -2.92 z M160.505 5.52 c-0.62 0.2 -0.96 1.08 -0.96 2.92 l0 8.54 c0 1.84 0.36 2.72 0.96 2.92 l0 0.1 l-5.66 0 l0 -0.1 c0.64 -0.2 1 -1.08 1 -2.92 l0 -4.4 l-4.68 -0.12 l0 -0.16 l4.68 -0.12 l0 -3.74 c0 -1.84 -0.36 -2.72 -1 -2.92 l0 -0.1 l5.66 0 l0 0.1 z M163.4935 5.52 l0 -0.1 l4.66 0 l0 14.58 l-4.66 0 l0 -0.1 c0.6 -0.2 0.96 -1.08 0.96 -2.92 l0 -8.54 c0 -1.84 -0.36 -2.72 -0.96 -2.92 z M174.29350000000002 9.6 c-1 -2.34 -2.34 -3.68 -4.32 -3.92 l-0.68 -0.08 l0 -0.18 l4.92 0 l0.18 4.14 z M170.07350000000002 12.32 c1.6 -0.04 2.46 -0.76 2.88 -1.86 l0.08 0 l0 4.22 l-0.08 0 c-0.42 -1.24 -1.28 -2.12 -2.88 -2.16 l-0.68 -0.02 l0 -0.16 z M175.17350000000002 15.8 l0.1 0.04 l-0.44 4.16 l-5.54 0 l0 -0.18 l1.16 -0.1 c1.66 -0.14 3.6 -1.94 4.72 -3.92 z M182.602 16.44 c0 2.38 0.38 3.26 1.2 3.46 l0 0.1 l-5.86 0 l0 -0.1 c0.6 -0.2 0.96 -1.08 0.96 -2.92 l0 -8.54 c0 -1.84 -0.36 -2.72 -0.96 -2.92 l0 -0.1 l4.66 0 l0 11.02 z M190.142 18.02 c0.6 1.32 1.02 1.74 1.4 1.88 l0 0.1 l-4.84 0 l-2.14 -6.72 c-0.22 0.02 -0.46 0.02 -0.7 0.02 l-0.04 -0.12 c1.24 -0.18 2.38 -1.14 2.38 -3.72 c0 -2.56 -1.06 -3.68 -2.46 -3.88 l0 -0.16 c4.16 0 6.36 1.6 6.36 4.06 c0 2.2 -2.02 3.56 -5.16 3.78 l0 0.1 c1.1 0.44 2.28 0.76 3.56 1.08 z"></path></g></svg>
