<?xml version="1.0" standalone="no"?>
<!DOCTYPE svg PUBLIC "-//W3C//DTD SVG 20010904//EN"
 "http://www.w3.org/TR/2001/REC-SVG-20010904/DTD/svg10.dtd">
<svg version="1.0" xmlns="http://www.w3.org/2000/svg"
 width="500.000000pt" height="500.000000pt" viewBox="0 0 500.000000 500.000000"
 preserveAspectRatio="xMidYMid meet">

<g transform="translate(0.000000,500.000000) scale(0.100000,-0.100000)"
fill="#000000" stroke="none">
<path d="M656 2553 c-4 -59 -12 -115 -16 -124 -5 -9 -23 -22 -40 -29 l-31 -13
27 -28 c33 -34 71 -38 105 -10 23 18 24 25 24 134 0 101 -3 119 -21 143 -36
48 -41 41 -48 -73z"/>
<path d="M2274 2641 c-31 -19 -74 -66 -74 -82 0 -4 15 -23 33 -42 25 -27 43
-35 85 -41 28 -4 52 -11 52 -15 0 -12 -59 -61 -73 -61 -7 0 -22 -3 -34 -6 -16
-4 -29 2 -49 22 -26 28 -26 28 -14 4 35 -70 103 -102 163 -76 73 30 99 109 54
162 -19 22 -34 28 -80 32 -67 5 -67 20 -1 52 24 12 44 26 44 31 0 9 -52 39
-67 39 -4 0 -22 -9 -39 -19z"/>
<path d="M3580 2651 c-14 -5 -40 -16 -59 -25 l-33 -18 21 -21 c19 -21 19 -27
9 -96 -7 -47 -18 -81 -29 -92 -41 -41 -11 -62 89 -64 42 -1 84 -5 93 -9 19 -9
55 20 64 53 7 23 6 23 -41 17 -27 -3 -65 -2 -84 2 -28 6 -36 13 -38 34 -3 29
2 32 76 43 23 4 42 11 42 16 0 19 -50 41 -80 35 -28 -5 -30 -3 -30 24 0 33 27
50 76 50 34 0 31 26 -6 45 -32 17 -34 17 -70 6z"/>
<path d="M3990 2560 c0 -55 -4 -100 -9 -100 -4 0 -23 34 -41 74 -18 41 -41 83
-51 92 -19 17 -69 29 -69 16 0 -4 -5 -47 -11 -97 -15 -137 -15 -177 5 -208 10
-15 24 -27 31 -27 16 0 22 28 31 149 l6 94 42 -81 c43 -81 109 -172 127 -172
23 0 1 277 -26 330 -27 52 -35 35 -35 -70z"/>
<path d="M855 2537 c-26 -61 -56 -122 -66 -133 -20 -21 -20 -21 11 -48 17 -14
36 -26 41 -26 5 0 18 18 29 40 15 29 29 42 53 48 30 8 35 6 78 -42 26 -28 50
-48 54 -45 3 4 -5 33 -18 65 -14 33 -30 77 -37 99 -20 64 -58 133 -79 144 -17
10 -24 0 -66 -102z m85 -58 c0 -10 -7 -19 -15 -19 -16 0 -19 9 -9 34 8 20 24
11 24 -15z"/>
<path d="M1172 2617 c-34 -35 -62 -102 -62 -148 0 -39 70 -115 120 -130 45
-14 95 8 111 48 12 33 8 36 -25 23 -30 -11 -76 -13 -100 -4 -39 15 9 151 63
179 39 19 39 30 1 50 -44 23 -73 18 -108 -18z"/>
<path d="M1460 2624 c-17 -15 -37 -39 -45 -55 -21 -39 -19 -136 3 -179 30 -61
109 -96 167 -74 31 12 68 104 69 172 l1 63 -52 50 c-61 58 -94 63 -143 23z
m117 -94 c-8 -66 -55 -155 -82 -155 -17 0 -21 8 -23 45 -7 92 30 160 87 160
23 0 24 -2 18 -50z"/>
<path d="M1797 2639 c-10 -6 -24 -8 -32 -5 -16 6 -21 -6 -35 -94 -17 -110 -14
-132 23 -168 28 -27 42 -33 86 -35 49 -2 55 1 86 35 48 52 54 83 22 116 -19
21 -24 34 -20 60 5 28 0 39 -28 68 -34 35 -68 43 -102 23z m63 -46 c0 -10 -32
-43 -42 -43 -10 0 -11 34 -1 43 8 9 43 9 43 0z m40 -122 c-9 -18 -69 -61 -84
-61 -3 0 -6 13 -6 28 0 24 5 30 38 39 58 16 64 16 52 -6z"/>
<path d="M2607 2643 c-3 -5 -27 -58 -52 -118 -26 -61 -54 -118 -63 -128 -16
-18 -15 -20 13 -43 41 -32 49 -30 70 16 14 31 26 42 53 50 33 9 36 7 79 -40
25 -28 48 -50 53 -50 7 0 -67 206 -94 257 -17 35 -52 67 -59 56z m40 -179 c-3
-3 -12 -4 -20 -2 -11 2 -12 9 -5 28 l10 25 11 -23 c5 -12 8 -25 4 -28z"/>
<path d="M2885 2636 c-11 -8 -25 -12 -32 -9 -10 4 -13 -16 -13 -88 0 -52 -5
-111 -11 -132 -9 -33 -8 -42 7 -58 9 -10 23 -19 30 -19 20 0 44 41 44 76 0 17
3 33 6 37 4 3 37 -21 75 -54 38 -32 76 -59 83 -59 16 0 31 17 40 46 6 19 1 22
-35 28 -23 4 -50 11 -61 17 -19 10 -19 12 8 29 36 22 60 48 69 78 5 19 -2 32
-43 73 -46 45 -53 49 -99 49 -27 0 -58 -6 -68 -14z m130 -46 c11 -18 -24 -61
-62 -76 -19 -9 -36 -14 -38 -12 -1 2 -6 22 -10 45 -5 35 -4 42 12 46 34 9 92
7 98 -3z"/>
<path d="M3219 2610 c-74 -78 -74 -166 1 -234 39 -35 58 -40 121 -36 19 1 28
-5 32 -19 3 -12 10 -21 16 -21 19 0 31 47 31 119 0 55 -4 71 -20 86 -20 18
-22 18 -59 -3 -21 -12 -47 -22 -57 -22 -16 -1 -15 -4 9 -23 32 -27 21 -47 -25
-47 -25 0 -28 4 -28 32 0 36 42 113 70 128 10 5 28 10 39 10 29 0 26 14 -10
44 -44 37 -75 34 -120 -14z m141 -180 c0 -5 -7 -7 -15 -4 -8 4 -15 8 -15 10 0
2 7 4 15 4 8 0 15 -4 15 -10z"/>
<path d="M4159 2644 c-15 -3 -34 -13 -43 -23 -15 -17 -15 -20 3 -42 19 -24 20
-24 49 -6 59 34 63 29 61 -90 -1 -104 -1 -108 25 -130 43 -37 56 -31 51 25 -3
26 -7 82 -10 126 l-5 78 45 -6 c39 -6 48 -4 70 18 35 35 31 46 -17 46 -24 0
-79 2 -123 4 -44 2 -92 2 -106 0z"/>
</g>
</svg>
