<?xml version="1.0" standalone="no"?>
<!DOCTYPE svg PUBLIC "-//W3C//DTD SVG 20010904//EN"
 "http://www.w3.org/TR/2001/REC-SVG-20010904/DTD/svg10.dtd">
<svg version="1.0" xmlns="http://www.w3.org/2000/svg"
 width="500.000000pt" height="500.000000pt" viewBox="0 0 500.000000 500.000000"
 preserveAspectRatio="xMidYMid meet">

<g transform="translate(0.000000,500.000000) scale(0.100000,-0.100000)"
fill="#000000" stroke="none">
<path d="M472 2833 c-7 -3 -20 -19 -28 -36 -14 -26 -15 -54 -9 -192 8 -181 5
-189 -50 -159 -28 15 -36 16 -49 5 -21 -18 -20 -37 4 -76 25 -40 69 -59 116
-52 79 13 92 44 100 254 7 180 0 234 -36 253 -20 11 -28 11 -48 3z"/>
<path d="M2348 2831 c-86 -28 -136 -88 -145 -173 -6 -65 19 -108 89 -153 50
-32 61 -46 52 -69 -9 -23 -31 -27 -80 -14 -51 14 -77 4 -82 -29 -7 -46 104
-85 193 -69 112 21 141 161 49 231 -101 77 -99 123 10 183 58 31 63 41 39 71
-21 25 -81 36 -125 22z"/>
<path d="M2960 2812 c-30 -31 -32 -43 -46 -302 -6 -108 -5 -117 16 -142 42
-54 101 -27 122 57 14 54 22 65 53 65 16 0 24 -12 37 -58 19 -65 51 -112 76
-112 25 1 50 23 62 55 12 32 9 49 -26 126 l-26 55 26 38 c87 129 -8 246 -200
246 -58 0 -69 -3 -94 -28z m174 -125 c29 -21 16 -58 -29 -84 -22 -12 -43 -23
-47 -23 -9 0 -21 97 -13 110 9 14 68 13 89 -3z"/>
<path d="M1721 2800 c-71 -11 -73 -18 -69 -230 4 -201 8 -219 60 -241 64 -26
193 15 228 74 25 40 27 123 4 155 -14 21 -14 25 -1 40 23 26 47 79 47 102 0
35 -27 76 -57 88 -37 14 -156 21 -212 12z m113 -116 c41 -16 -2 -54 -60 -54
-18 0 -24 5 -24 23 0 13 3 27 7 30 8 9 56 9 77 1z m9 -184 c23 -21 -12 -59
-70 -75 -21 -6 -23 -3 -23 39 0 34 4 46 18 49 20 5 64 -2 75 -13z"/>
<path d="M3732 2800 c-12 -5 -26 -20 -31 -32 -4 -13 -11 -110 -14 -216 -8
-246 -15 -236 148 -230 126 5 141 11 151 66 9 48 -19 72 -85 72 -54 0 -87 19
-78 44 5 11 19 16 51 16 37 0 49 5 61 24 19 29 11 72 -15 86 -10 6 -37 10 -59
10 -34 0 -41 3 -41 19 0 26 17 35 57 33 51 -4 75 13 71 51 -2 23 -10 35 -29
44 -35 17 -158 25 -187 13z"/>
<path d="M745 2773 c-59 -14 -99 -99 -150 -315 -21 -89 -13 -123 30 -134 44
-11 71 9 84 60 l11 46 59 0 c57 0 59 -1 71 -32 17 -43 39 -68 60 -68 20 0 50
31 50 52 0 31 -119 351 -137 368 -21 21 -50 29 -78 23z m45 -230 c0 -7 -7 -13
-16 -13 -11 0 -14 5 -10 16 3 9 6 21 6 27 0 16 20 -14 20 -30z"/>
<path d="M2663 2768 c-23 -6 -39 -20 -57 -51 -32 -56 -90 -260 -90 -321 -1
-43 2 -52 25 -64 44 -26 76 -9 92 46 l14 47 59 3 60 3 21 -51 c17 -40 26 -50
46 -50 13 0 32 9 43 21 18 21 18 23 -41 196 -33 97 -68 186 -77 198 -21 27
-51 34 -95 23z m56 -230 c1 -5 -6 -8 -14 -8 -16 0 -19 9 -8 36 6 16 7 16 14
-2 4 -10 8 -22 8 -26z"/>
<path d="M3455 2761 c-82 -49 -145 -159 -145 -251 0 -50 43 -130 83 -158 87
-58 211 -30 249 56 28 62 16 117 -31 149 -42 28 -75 29 -101 3 -28 -28 -26
-66 5 -86 20 -13 23 -19 14 -30 -17 -21 -44 -17 -76 10 -23 20 -28 32 -28 69
0 58 25 93 96 132 60 34 71 60 45 101 -20 30 -67 32 -111 5z"/>
<path d="M1152 2751 c-181 -63 -225 -290 -75 -394 86 -61 193 -40 193 38 0 39
-12 51 -65 60 -72 13 -95 32 -95 76 0 39 34 75 87 93 25 9 55 23 65 33 26 23
24 78 -4 97 -28 20 -41 20 -106 -3z"/>
<path d="M4390 2730 c-20 -37 -5 -68 40 -80 22 -6 45 -8 50 -5 6 4 10 -49 10
-144 0 -123 3 -152 16 -165 23 -24 50 -19 74 12 21 26 22 34 17 159 l-5 132
38 6 c46 8 64 26 55 55 -10 31 -31 37 -161 45 -119 7 -122 7 -134 -15z"/>
<path d="M4073 2728 c-39 -19 -53 -79 -56 -235 -2 -124 0 -144 16 -160 33 -34
59 6 94 146 l8 34 37 -59 c73 -119 123 -142 161 -77 37 65 35 295 -4 334 -25
25 -35 24 -64 -6 -21 -20 -25 -34 -25 -82 l-1 -58 -33 65 c-48 93 -86 120
-133 98z"/>
<path d="M1390 2707 c-58 -30 -80 -74 -80 -156 0 -82 26 -163 62 -198 25 -24
38 -28 88 -28 111 0 155 61 155 215 0 84 -3 99 -24 129 -45 62 -126 78 -201
38z m124 -119 c29 -41 13 -158 -23 -178 -14 -7 -25 -5 -45 11 -23 18 -26 28
-26 80 0 50 4 64 25 84 30 31 49 32 69 3z"/>
</g>
</svg>
